<svg width="1000" height="1000" viewBox="0 0 1000 1000" fill="none" xmlns="http://www.w3.org/2000/svg">
<path d="M535 979.793C513.342 992.297 486.658 992.297 465 979.793L101.987 770.207C80.3292 757.703 66.9873 734.594 66.9873 709.586L66.9872 290.415C66.9872 265.406 80.3292 242.297 101.987 229.793L465 20.2073C486.658 7.70299 513.342 7.70298 535 20.2073L898.013 229.793C919.671 242.297 933.013 265.406 933.013 290.414L933.013 709.585C933.013 734.594 919.671 757.703 898.013 770.207L535 979.793Z" fill="blue"/>
<path d="M476.921 401.463L324.561 315.521C324.561 315.521 286.285 300.359 320.944 282.299L468.968 200.693C468.968 200.693 489.183 183.35 519.506 200.693L669.711 283.017C669.711 283.017 704.37 296.024 665.375 316.239C626.381 336.454 515.888 397.845 515.888 397.845C515.888 397.845 497.375 413.007 476.894 401.463L476.921 401.463Z" fill="white"/>
<path d="M470.85 616.958L267.686 502.369C267.686 502.369 216.669 482.153 262.871 458.081L460.263 349.291C460.263 349.291 487.235 326.176 527.665 349.291L727.93 459.065C727.93 459.065 774.133 476.408 722.158 503.353C670.157 530.324 522.851 612.143 522.851 612.143C522.851 612.143 498.167 632.359 470.85 616.958Z" fill="white" fill-opacity="0.7"/>
<path d="M465.982 799.042L201.88 650.087C201.88 650.087 135.542 623.808 195.629 592.5L452.231 451.046C452.231 451.046 487.288 421.016 539.848 451.046L800.2 593.751C800.2 593.751 860.287 616.28 792.699 651.338C725.111 686.395 533.597 792.792 533.597 792.792C533.597 792.792 501.519 819.072 466.009 799.042L465.982 799.042Z" fill="white" fill-opacity="0.5"/>
</svg>
